# AST/ASF file generated using VICON BodyLanguage
# -----------------------------------------------
:version 1.10
:name VICON
:units
  mass 1.0
  length 0.45
  angle deg
:documentation
   .ast/.asf automatically generated from VICON data using
   VICON BodyBuilder and BodyLanguage model FoxedUp or BRILLIANT.MOD
:root
   order TX TY TZ RX RY RZ
   axis XYZ
   position 0 0 0  
   orientation 0 0 0 
:bonedata
  begin
     id 1 
     name lhipjoint
     direction 0.714689 -0.624256 0.315473 
     length 2.45343 
     axis 0 0 0  XYZ
  end
  begin
     id 2 
     name lfemur
     direction 0.34202 -0.939693 0  
     length 6.59069  
     axis 0 0 20  XYZ
    dof rx ry rz
    limits (-160.0 20.0)
           (-70.0 70.0)
           (-60.0 70.0)
  end
  begin
     id 3 
     name ltibia
     direction 0.34202 -0.939693 0   
     length 6.73476   
     axis 0 0 20   XYZ
    dof rx
    limits (-10.0 170.0)
  end
  begin
     id 4 
     name lfoot
     direction 0.0718085 -0.197292 0.977711   
     length 1.52607   
     axis -90 7.62852e-016 20   XYZ
    dof rx rz
    limits (-45.0 90.0)
           (-70.0 20.0)
  end
  begin
     id 5 
     name ltoes
     direction 1.53553e-011 -4.22024e-011 1   
     length 0.777832   
     axis -90 7.62852e-016 20   XYZ
    dof rx
    limits (-90.0 20.0)
  end
  begin
     id 6 
     name rhipjoint
     direction -0.727419 -0.612432 0.309497   
     length 2.50079  
     axis 0 0 0  XYZ 
  end
  begin
     id 7 
     name rfemur
     direction -0.34202 -0.939693 0   
     length 6.51665   
     axis 0 0 -20   XYZ
    dof rx ry rz
    limits (-160.0 20.0)
           (-70.0 70.0)
           (-70.0 60.0)
  end
  begin
     id 8 
     name rtibia
     direction -0.34202 -0.939693 0   
     length 6.48919   
     axis 0 0 -20   XYZ
    dof rx
    limits (-10.0 170.0)
 end
 begin
     id 9 
     name rfoot
     direction -0.112205 -0.308282 0.944655   
     length 1.68717  
     axis -90 -7.62852e-016 -20   XYZ
    dof rx rz
    limits (-45.0 90.0)
           (-20.0 70.0)
  end
  begin
     id 10 
     name rtoes
     direction -1.53583e-011 -4.21993e-011 1   
     length 0.846859   
     axis -90 -7.62852e-016 -20   XYZ
    dof rx
    limits (-90.0 20.0)
  end
  begin
     id 11 
     name lowerback
     direction -0.00119603 0.996364 -0.0851956   
     length 1.67242   
     axis 0 0 0   XYZ
    dof rx ry rz
    limits (-20.0 45.0)
           (-30.0 30.0)
           (-30.0 30.0)
  end
  begin
     id 12 
     name upperback
     direction -0.00531001 0.998318 0.0577248   
     length 1.64819   
     axis 0 0 0   XYZ
    dof rx ry rz
    limits (-20.0 45.0)
           (-30.0 30.0)
           (-30.0 30.0)
  end
  begin
     id 13 
     name thorax
     direction -0.00653676 0.995132 0.0983291   
     length 1.67429   
     axis 0 0 0   XYZ
    dof rx ry rz
    limits (-20.0 45.0)
           (-30.0 30.0)
           (-30.0 30.0)
  end
  begin
     id 14 
     name lowerneck
     direction 0.0141424 0.999886 0.00525412   
     length 1.59623   
     axis 0 0 0   XYZ
    dof rx ry rz
    limits (-20.0 45.0)
           (-30.0 30.0)
           (-30.0 30.0)
  end
  begin
     id 15 
     name upperneck
     direction -0.0640064 0.987178 -0.146232   
     length 1.59576   
     axis 0 0 0   XYZ
    dof rx ry rz
    limits (-20.0 45.0)
           (-30.0 30.0)
           (-30.0 30.0)
  end
  begin
     id 16
     name head
     direction -0.0222942 0.998496 -0.0500859  
     length 1.60959  
     axis 0 0 0   XYZ
    dof rx ry rz
    limits (-20.0 45.0)
           (-30.0 30.0)
           (-30.0 30.0)
  end
  begin
     id 17 
     name lclavicle
     direction 0.908549 0.392612 0.142806  
     length 2.80649  
     axis 0 0 0   XYZ
    dof ry rz
    limits (-20.0 10.0)
           (0.0 20.0)
  end
  begin
     id 18 
     name lhumerus
     direction 1 -4.48968e-011 1.08832e-028   
     length 4.2884   
     axis -180 -30 -90   XYZ
    dof rx ry rz
    limits (-60.0 90.0)
           (-90.0 90.0)
           (-90.0 90.0)
  end
  begin
     id 19
     name lradius
     direction 1 -4.48952e-011 -3.02642e-028   
     length 3.06552   
     axis -180 -30 -90   XYZ
    dof rx
    limits (-10.0 170.0)
  end
  begin
     id 20
     name lwrist
     direction 1 -4.49014e-011 1.58672e-027   
     length 1.53276   
     axis -1.65735e-015 90 90   XYZ
    dof ry
    limits (-180.0 0.0)
 end
  begin
     id 21 
     name lhand
     direction 1 -4.48928e-011 3.17344e-027   
     length 0.753045   
     axis -2.02492e-015 90 90   XYZ
    dof rx rz
    limits (-90.0 90.0)
           (-45.0 45.0)
  end
  begin
     id 22 
     name lfingers
     direction 1 -4.48958e-011 6.34687e-027   
     length 0.607124   
     axis -4.04985e-015 90 90   XYZ
    dof rx
    limits (0.0 90.0)
  end
  begin
     id 23
     name lthumb
     direction 0.707107 -6.34905e-011 0.707107   
     length 0.871712   
     axis -90 45 2.85299e-015   XYZ
    dof rx rz
    limits (-45.0 45.0)
           (-45.0 45.0)
  end
  begin
     id 24 
     name rclavicle
     direction -0.885098 0.45949 0.0739604   
     length 2.9478  
     axis 0 0 0   XYZ 
    dof ry rz
    limits (-10.0 20.0)
           (-20.0 0.0)
  end
  begin
     id 25 
     name rhumerus
     direction -1 -4.4898e-011 -2.61739e-027  
     length 4.52172   
     axis -180 30 90   XYZ
    dof rx ry rz
    limits (-90.0 60.0)
           (-90.0 90.0)
           (-90.0 90.0)
  end
  begin
     id 26 
     name rradius
     direction -1 -4.48945e-011 9.02552e-028   
     length 2.8914   
     axis -180 30 90   XYZ
    dof rx
    limits (-10.0 170.0)
  end
  begin
     id 27 
     name rwrist
     direction -1 -4.49018e-011 1.58672e-027   
     length 1.4457   
     axis -1.65735e-015 -90 -90   XYZ
    dof ry
    limits (-180.0 0.0)
  end
  begin
     id 28
     name rhand
     direction -1 -4.48825e-011 3.17344e-027   
     length 0.680541   
     axis -2.02492e-015 -90 -90   XYZ
    dof rx rz
    limits (-90.0 90.0)
           (-45.0 45.0)
  end
  begin
     id 29
     name rfingers
     direction -1 -4.49067e-011 6.34687e-027   
     length 0.54867   
     axis -4.04985e-015 -90 -90   XYZ
    dof rx
    limits (0.0 90.0)
  end
  begin
     id 30
     name rthumb
     direction -0.707107 -6.34833e-011 0.707107   
     length 0.787783   
     axis -90 -45 -2.85299e-015   XYZ
    dof rx rz
    limits (-45.0 45.0)
           (-45.0 45.0)
  end
:hierarchy
  begin
    root lhipjoint rhipjoint lowerback
    lhipjoint lfemur
    lfemur ltibia
    ltibia lfoot
    lfoot ltoes
    rhipjoint rfemur
    rfemur rtibia
    rtibia rfoot
    rfoot rtoes
    lowerback upperback
    upperback thorax
    thorax lowerneck lclavicle rclavicle
    lowerneck upperneck
    upperneck head
    lclavicle lhumerus
    lhumerus lradius
    lradius lwrist
    lwrist lhand lthumb
    lhand lfingers
    rclavicle rhumerus
    rhumerus rradius
    rradius rwrist
    rwrist rhand rthumb
    rhand rfingers
  end

#!OML:ASF E:\emotionWalksFemale\Project 1\Capture day 1\Session 1\Female1.ASF
:FULLY-SPECIFIED
:DEGREES
32
root 8.48306 15.5292 22.9813 -179.492 -0.0579179 -179.779
lowerback 4.77899 1.39649 0.907982
upperback -4.48901 1.81994 -0.179236
thorax -7.33938 0.792062 -0.891105
lowerneck -7.76589 -1.66411 -4.79257
upperneck 17.2542 -3.06249 4.73447
head 6.66469 -1.66614 2.03843
rclavicle 1.68874e-014 1.21756e-015
rhumerus -47.585 18.1135 -100.36
rradius 33.7592
rwrist 22.1644
rhand -3.6077 -50.1054
rfingers 7.12502
rthumb -157.869 -258.859
lclavicle 1.68874e-014 1.21756e-015
lhumerus -44.5557 -10.4333 94.7772
lradius 36.0372
lwrist -10.4625
lhand -2.57049 -38.435
lfingers 7.12502
lthumb 23.1261 -9.80299
rfemur 1.87999 17.5208 27.2885
rtibia 13.6834
rfoot -17.3264 -31.7894
rtoes 5.78336
lfemur -4.32908 -21.4002 -25.4318
ltibia 20.7129
lfoot -21.0605 18.9114
ltoes -19.551
33
root 8.47841 15.5317 22.9853 -179.405 0.207776 -179.732
lowerback 4.77791 1.32806 0.988683
upperback -4.5522 1.97996 -0.163083
thorax -7.40314 0.969149 -0.95148
lowerneck -7.80275 -1.67642 -4.77873
upperneck 17.3346 -3.08177 4.69738
head 6.6972 -1.67911 2.02226
rclavicle 5.29575e-015 1.2424e-016
rhumerus -47.6105 18.0691 -100.335
rradius 33.7733
rwrist 22.499
rhand -3.0387 -50.0072
rfingers 7.12502
rthumb -157.323 -258.695
lclavicle 5.29575e-015 1.2424e-016
lhumerus -44.5943 -10.4349 94.7965
lradius 36.0656
lwrist -10.4756
lhand -2.5468 -38.3773
lfingers 7.12502
lthumb 23.1488 -9.74817
rfemur 1.70782 17.4251 27.2151
rtibia 13.684
rfoot -17.0633 -31.4679
rtoes 5.62944
lfemur -4.42698 -21.3325 -25.385
ltibia 20.7117
lfoot -21.1262 19.1094
ltoes -19.6289
34
root 8.47654 15.5317 22.988 -179.373 0.34117 -179.676
lowerback 4.77561 1.37769 1.04907
upperback -4.57309 2.05442 -0.145796
thorax -7.42131 1.00345 -0.97578
lowerneck -7.80864 -1.67446 -4.82665
upperneck 17.3802 -3.09157 4.77025
head 6.7149 -1.68295 2.05284
rclavicle 2.9094e-014 2.60905e-015
rhumerus -47.5691 17.9554 -100.213
rradius 33.863
rwrist 23.0759
rhand -1.31323 -50.1948
rfingers 7.12502
rthumb -155.668 -258.67
lclavicle 2.9094e-014 2.60905e-015
lhumerus -44.6005 -10.4852 94.8257
lradius 36.0871
lwrist -10.4237
lhand -2.61318 -38.1949
lfingers 7.12502
lthumb 23.0852 -9.55782
rfemur 1.62497 17.3857 27.2227
rtibia 13.7018
rfoot -16.9558 -31.3556
rtoes 5.21722
lfemur -4.47086 -21.2721 -25.322
ltibia 20.7014
lfoot -21.1462 19.1899
ltoes -19.7206
35
root 8.47662 15.5314 22.9874 -179.445 0.20751 -179.686
lowerback 4.797 1.34657 1.0268
upperback -4.55121 2.00934 -0.142044
thorax -7.41212 0.981987 -0.954575
lowerneck -7.8049 -1.67924 -4.8609
upperneck 17.4362 -3.11132 4.82231
head 6.73434 -1.69308 2.07367
rclavicle 2.19781e-014 1.41634e-015
rhumerus -47.5268 17.8494 -100.117
rradius 33.9409
rwrist 23.3471
rhand -0.497849 -50.339
rfingers 7.12502
rthumb -154.887 -258.707
lclavicle 2.19781e-014 1.41634e-015
lhumerus -44.608 -10.509 94.8465
lradius 36.1255
lwrist -10.2874
lhand -2.45341 -37.8589
lfingers 7.12502
lthumb 23.2385 -9.24105
rfemur 1.68742 17.3701 27.2595
rtibia 13.7812
rfoot -17.1414 -31.4799
rtoes 5.35051
lfemur -4.37395 -21.3217 -25.3512
ltibia 20.6454
lfoot -21.0958 19.0663
ltoes -19.2959
36
root 8.474 15.5362 22.9907 -179.32 0.630419 -179.719
lowerback 4.72975 1.48304 0.996677
upperback -4.613 2.1946 -0.148392
thorax -7.43611 1.07625 -0.964068
lowerneck -7.81504 -1.69695 -4.82401
upperneck 17.5008 -3.12888 4.71701
head 6.7558 -1.70926 2.03193
rclavicle 1.87603e-015 -2.5345e-015
rhumerus -47.529 17.8636 -100.137
rradius 34.0081
rwrist 23.142
rhand -0.738914 -50.5489
rfingers 7.12502
rthumb -155.118 -258.949
lclavicle 1.87603e-015 -2.5345e-015
lhumerus -44.6447 -10.4585 94.8188
lradius 36.2201
lwrist -10.0911
lhand -2.05251 -37.6639
lfingers 7.12502
lthumb 23.623 -9.09512
rfemur 1.42405 17.3482 27.0797
rtibia 13.8536
rfoot -17.0095 -31.0594
rtoes 5.02015
lfemur -4.47256 -21.2436 -25.3769
ltibia 20.5952
lfoot -21.217 19.2238
ltoes -18.2098
37
root 8.47296 15.535 22.9902 -179.373 0.358761 -179.767
lowerback 4.7349 1.37602 0.971277
upperback -4.61144 2.04859 -0.152722
thorax -7.44115 1.00566 -0.938555
lowerneck -7.76618 -1.67629 -4.81434
upperneck 17.5001 -3.09453 4.65429
head 6.7442 -1.69868 2.01327
rclavicle -4.42296e-015 2.83268e-015
rhumerus -47.5931 17.9373 -100.198
rradius 34.1663
rwrist 22.7085
rhand -0.593686 -50.8887
rfingers 7.12502
rthumb -154.978 -259.27
lclavicle -4.42296e-015 2.83268e-015
lhumerus -44.7203 -10.3573 94.7722
lradius 36.2835
lwrist -10.0385
lhand -1.96792 -37.6492
lfingers 7.12502
lthumb 23.7042 -9.0909
rfemur 1.51557 17.2998 27.0845
rtibia 13.8895
rfoot -17.1706 -31.2213
rtoes 5.01855
lfemur -4.41893 -21.2887 -25.4283
ltibia 20.5678
lfoot -21.1216 19.1357
ltoes -19.1626
38
root 8.47298 15.5342 22.9916 -179.362 0.276482 -179.795
lowerback 4.72011 1.33602 0.912128
upperback -4.62256 1.99234 -0.13443
thorax -7.44817 0.982136 -0.879981
lowerneck -7.73236 -1.65002 -4.82131
upperneck 17.4695 -3.0543 4.64374
head 6.72631 -1.6806 2.01465
rclavicle -1.62227e-014 -7.20594e-016
rhumerus -47.6513 17.9985 -100.258
rradius 34.2407
rwrist 22.229
rhand -1.00127 -50.9545
rfingers 7.12502
rthumb -155.369 -259.39
lclavicle -1.62227e-014 -7.20594e-016
lhumerus -44.7296 -10.2357 94.7499
lradius 36.2629
lwrist -10.1091
lhand -2.10875 -37.6309
lfingers 7.12502
lthumb 23.5691 -9.0552
rfemur 1.47913 17.2789 27.0581
rtibia 13.9267
rfoot -17.098 -31.3026
rtoes 4.75342
lfemur -4.43448 -21.2224 -25.4423
ltibia 20.543
lfoot -21.0168 19.1648
ltoes -20.1991
39
root 8.47233 15.534 22.9928 -179.354 0.253959 -179.772
lowerback 4.70079 1.3192 0.908585
upperback -4.61888 1.97102 -0.109014
thorax -7.43441 0.972816 -0.848399
lowerneck -7.76034 -1.63991 -4.82715
upperneck 17.4767 -3.03618 4.63757
head 6.73263 -1.67188 2.01499
rclavicle 1.24753e-014 4.22417e-016
rhumerus -47.6492 17.9857 -100.28
rradius 34.2411
rwrist 22.0011
rhand -1.5388 -50.8506
rfingers 7.12502
rthumb -155.884 -259.355
lclavicle 1.24753e-014 4.22417e-016
lhumerus -44.7536 -10.1444 94.7085
lradius 36.3235
lwrist -10.2377
lhand -2.31923 -37.6735
lfingers 7.12502
lthumb 23.3672 -9.0719
rfemur 1.43925 17.2756 27.0726
rtibia 13.932
rfoot -17.1049 -31.3565
rtoes 5.05369
lfemur -4.46268 -21.1883 -25.408
ltibia 20.5579
lfoot -21.0121 19.0808
ltoes -20.1449
40
root 8.47037 15.5348 22.9949 -179.356 0.29356 -179.728
lowerback 4.7219 1.32601 0.960627
upperback -4.62314 1.98623 -0.0874506
thorax -7.45012 0.978011 -0.857348
lowerneck -7.72877 -1.62995 -4.89628
upperneck 17.4055 -3.0173 4.70027
head 6.70513 -1.66068 2.0486
rclavicle -1.58236e-014 6.89534e-016
rhumerus -47.6621 17.9966 -100.303
rradius 34.2737
rwrist 21.9278
rhand -1.76219 -50.7144
rfingers 7.12502
rthumb -156.099 -259.247
lclavicle -1.58236e-014 6.89534e-016
lhumerus -44.8695 -10.1554 94.7052
lradius 36.4459
lwrist -10.432
lhand -2.77691 -37.8533
lfingers 7.12502
lthumb 22.9281 -9.19663
rfemur 1.42832 17.2735 27.1043
rtibia 13.9228
rfoot -17.1163 -31.3236
rtoes 5.36861
lfemur -4.48786 -21.1972 -25.3684
ltibia 20.5968
lfoot -21.0317 19.0778
ltoes -19.9765
